<svg viewBox="0 0 1408 401" width="1408px" height="401px" fill="none" xmlns="http://www.w3.org/2000/svg">
  <defs>
    <style>@import url(https://fonts.googleapis.com/css2?family=Abel%3Aital%2Cwght%400%2C400&amp;display=swap);</style>
  </defs>
  <rect width="1408" height="401" fill="black" x="3.902" y="-0.78" transform="matrix(1, 0, 0, 1, 7.105427357601002e-15, 7.105427357601002e-15)"/>
  <path d="M1389.16 372.708C1376.61 385.078 1361.54 391.266 1343.96 391.273C1326.39 391.279 1311.32 385.091 1298.77 372.708C1286.21 360.344 1279.94 345.494 1279.94 328.157C1279.94 310.821 1286.21 295.971 1298.77 283.607C1311.32 271.243 1326.39 265.058 1343.96 265.052C1361.54 265.045 1376.61 271.23 1389.16 283.607C1401.71 295.997 1407.99 310.847 1408 328.157C1408.01 345.468 1401.73 360.318 1389.16 372.708Z" fill="white" transform="matrix(1, 0, 0, 1, 7.105427357601002e-15, 7.105427357601002e-15)"/>
  <text style="fill: rgb(255, 255, 255); font-family: Abel; font-size: 6.796347px;" transform="matrix(72.32799530029297, 0, 0, 68.96182250976562, -5586.90966796875, -7225.95361328125)" x="77.268" y="110.048">WAVE</text>
</svg>