<svg width="58" height="48" viewBox="0 0 58 48" fill="none" xmlns="http://www.w3.org/2000/svg">
<path fill-rule="evenodd" clip-rule="evenodd" d="M0.845702 13.3014H12.9352C13.4009 13.3014 13.7809 13.6825 13.7809 14.1481V18.0174C13.7809 18.483 13.4009 18.8631 12.9352 18.8631H10.433V29.3816H12.9362C13.4009 29.3816 13.7819 29.7627 13.7829 30.2293V34.0987C13.7819 34.3228 13.6923 34.5375 13.5337 34.6959C13.3751 34.8543 13.1604 34.9436 12.9362 34.9444H0.845702C0.621569 34.9438 0.406767 34.8546 0.248281 34.6961C0.0897952 34.5376 0.000525518 34.3228 0 34.0987V30.2293C0 29.7627 0.380068 29.3816 0.845702 29.3816H3.50618V18.8621H0.846696C0.622472 18.8616 0.407567 18.7724 0.248923 18.6139C0.0902783 18.4554 0.000787986 18.2406 0 18.0164V14.1471C0 13.6815 0.380068 13.3014 0.845702 13.3014ZM45.8808 35.3055C39.7211 35.3055 34.6966 31.5994 34.6966 24.3651C34.6966 17.1309 39.7211 13.4238 45.8808 13.4238C52.0395 13.4238 57.0639 17.1309 57.0639 24.3651C57.0639 31.5994 52.0405 35.3055 45.8808 35.3055ZM49.0845 24.3651C49.0845 20.4073 48.3701 18.3806 45.8808 18.3806C43.3904 18.3806 42.6761 20.4083 42.6761 24.3651C42.6761 28.322 43.3904 30.3507 45.8808 30.3507C48.3701 30.3497 49.0845 28.321 49.0845 24.3651ZM25.3551 21.5236C23.3065 20.9475 21.2241 20.8142 21.3137 19.2014C21.3465 18.6144 21.8032 17.9567 23.3692 17.9527C24.3472 17.9508 25.9869 18.2731 27.2575 19.076C28.5678 19.9038 29.512 21.1425 30.4661 21.1425H32.8052C33.4967 21.1425 34.0141 20.1426 34.0141 19.4501V14.9739C34.0141 14.1779 33.4778 13.9212 32.8958 13.9282L30.6064 13.9561C29.0971 13.975 29.7796 15.1679 29.118 15.4146C27.3987 16.0584 27.4067 13.57 22.823 13.5093C17.6513 13.4417 14.5978 16.4554 14.6744 19.9038C14.7699 24.2458 18.0502 25.8347 22.1186 27.1619C24.1413 27.8226 27.4654 28.1589 27.3749 29.7717C27.342 30.3587 26.8853 31.0173 25.3193 31.0213C24.3413 31.0213 22.7016 30.7009 21.4311 29.898C20.1207 29.0702 19.1755 27.8305 18.2224 27.8305H15.8833C15.1908 27.8305 14.6744 28.8314 14.6744 29.5229V34.0002C14.6744 34.7971 15.2107 35.0538 15.7927 35.0459L18.0821 35.019C19.5914 34.9991 18.9099 33.8062 19.5715 33.5594C21.2908 32.9167 21.2818 35.404 25.8655 35.4637C31.0382 35.5314 34.0907 32.5177 34.0151 29.0682C33.9186 24.7263 30.6611 23.017 25.3551 21.5236ZM42.5159 6.15471C41.8881 6.88201 40.9807 7.54863 39.8524 8.12967C40.6564 9.26438 41.3561 10.4695 41.9428 11.7304H40.8663C40.3215 10.6192 39.6841 9.55581 38.961 8.55153C38.3789 8.80325 37.7501 9.03607 37.0825 9.24501C36.3363 9.47882 35.5393 9.68576 34.6996 9.85988C34.8797 10.3693 35.0508 10.8986 35.211 11.4468L35.2926 11.7304H34.2837L34.2798 11.7164C34.1158 11.1532 33.9346 10.5951 33.7365 10.043C31.9775 10.3415 30.1977 10.5015 28.4136 10.5215V11.7304H27.4405V10.5215C25.6567 10.502 23.8772 10.342 22.1186 10.043C21.919 10.6001 21.7365 11.1631 21.5714 11.7314H20.5625C20.5883 11.6359 20.6162 11.5423 20.6441 11.4478C20.8042 10.8996 20.9754 10.3693 21.1565 9.85988C20.2733 9.67841 19.4007 9.44857 18.5427 9.17137C17.9842 8.99129 17.4347 8.78445 16.8961 8.55153C16.2109 9.50297 15.6024 10.5074 15.0764 11.5553L14.9888 11.7304H13.9123C14.4999 10.4698 15.1998 9.26468 16.0037 8.12967C14.8764 7.54863 13.969 6.88301 13.3412 6.15471C11.3927 7.73473 9.71042 9.61723 8.35851 11.7304H7.21333C11.4538 4.71006 19.1576 0 27.928 0C36.6985 0 44.4023 4.71006 48.6427 11.7304H47.4986C46.1458 9.6179 44.4636 7.73554 42.5159 6.15471ZM21.6708 1.83468C22.0917 2.25255 22.7046 2.62665 23.4578 2.9311C24.6726 3.4226 26.2287 3.7181 27.928 3.7181C29.502 3.7181 30.9537 3.46539 32.1227 3.03756C33.0003 2.71719 33.7116 2.30429 34.1852 1.83468C32.1934 1.27452 30.094 0.974045 27.927 0.974045C25.7601 0.974045 23.6617 1.27452 21.6708 1.83468ZM21.5186 2.97189C21.194 2.73744 20.9031 2.45958 20.654 2.14609C18.3033 2.92639 16.0927 4.0782 14.1063 5.55775C14.6764 6.20943 15.5231 6.81237 16.5897 7.34267C18.0234 5.51297 19.6889 4.02355 21.5186 2.97189ZM24.2786 4.22751C23.8771 4.11926 23.4825 3.98736 23.0966 3.83252C22.8872 3.74792 22.6811 3.65533 22.4787 3.55493C20.6341 4.51803 18.9497 5.95373 17.503 7.75657C17.9249 7.93168 18.3726 8.09585 18.8442 8.24907C19.665 8.51671 20.5565 8.74952 21.5027 8.94055C22.2887 6.96261 23.2299 5.35279 24.2786 4.22751ZM27.4405 4.6832C26.7579 4.66277 26.0776 4.59361 25.4049 4.47625C24.3035 5.47119 23.3055 7.06907 22.4728 9.11765C24.0179 9.37435 25.6914 9.52558 27.4405 9.54946V4.6832ZM30.4502 4.47625C29.7771 4.59317 29.0965 4.66233 28.4136 4.6832V9.54946C30.0783 9.53065 31.7393 9.38631 33.3823 9.11765C32.5495 7.07006 31.5516 5.47119 30.4502 4.47625ZM33.3763 3.55393C33.0888 3.6982 32.7794 3.82954 32.453 3.94893C32.1745 4.05041 31.8819 4.14394 31.5775 4.22751C32.6262 5.35279 33.5674 6.96261 34.3534 8.93856C35.1771 8.77393 35.9917 8.5667 36.794 8.31772C37.3221 8.15369 37.8427 7.96611 38.354 7.75557C36.9064 5.95274 35.222 4.51704 33.3763 3.55393ZM35.2021 2.14708C34.9528 2.46082 34.6616 2.7387 34.3365 2.97289C36.1662 4.02554 37.8327 5.51397 39.2644 7.34367C40.331 6.81436 41.1777 6.21142 41.7488 5.55974C39.763 4.07951 37.5527 2.92733 35.2021 2.14708ZM42.5159 41.8463C41.8881 41.118 40.9807 40.4514 39.8524 39.8703C40.6564 38.7363 41.3561 37.5318 41.9428 36.2716H40.8663C40.3215 37.3831 39.6841 38.4468 38.961 39.4515C38.3473 39.1877 37.7203 38.9562 37.0825 38.758C36.2986 38.5144 35.5034 38.3089 34.6996 38.1421C34.8797 37.6327 35.0508 37.1044 35.211 36.5562L35.2926 36.2726H34.2837L34.2798 36.2865C34.1156 36.8497 33.9345 37.4078 33.7365 37.96C31.9776 37.6608 30.1977 37.5011 28.4136 37.4825V36.2736H27.4405V37.4825C25.6567 37.5011 23.8772 37.6608 22.1186 37.96C21.9186 37.4034 21.7361 36.8407 21.5714 36.2726H20.5625C20.5883 36.3681 20.6162 36.4607 20.6441 36.5562C20.8042 37.1044 20.9754 37.6347 21.1565 38.1441C20.2292 38.3361 19.3536 38.568 18.5427 38.8316C17.9607 39.0197 17.4105 39.2276 16.8961 39.4515C16.2111 38.4995 15.6026 37.4948 15.0764 36.4467L14.9888 36.2716H13.9123C14.4999 37.5316 15.1998 38.736 16.0037 39.8703C14.8764 40.4514 13.969 41.118 13.3412 41.8463C11.3922 40.2668 9.70989 38.3842 8.35851 36.2706H7.21333C11.4538 43.2899 19.1576 48 27.928 48C36.6985 48 44.4023 43.2899 48.6427 36.2706H47.4986C46.1463 38.3835 44.4641 40.2659 42.5159 41.8463ZM21.6708 46.1663C22.0917 45.7485 22.7046 45.3753 23.4578 45.0699C24.6726 44.5784 26.2287 44.2849 27.928 44.2849C29.502 44.2849 30.9537 44.5376 32.1227 44.9634C33.0003 45.2838 33.7116 45.6977 34.1852 46.1663C32.1934 46.7275 30.094 47.027 27.927 47.027C25.7601 47.027 23.6617 46.7255 21.6708 46.1663ZM21.5186 45.0291C21.1938 45.2633 20.9028 45.5412 20.654 45.8549C18.3031 45.0747 16.0924 43.9225 14.1063 42.4423C14.6764 41.7916 15.5231 41.1886 16.5897 40.6583C18.0234 42.489 19.6889 43.9784 21.5186 45.0291ZM24.2786 43.7735C23.8772 43.8814 23.4825 44.013 23.0966 44.1675C22.8875 44.2529 22.6815 44.3455 22.4787 44.4451C20.6341 43.483 18.9497 42.0473 17.503 40.2434C17.9249 40.0683 18.3726 39.9051 18.8442 39.7519C19.665 39.4833 20.5565 39.2505 21.5027 39.0604C22.2887 41.0394 23.2299 42.6492 24.2786 43.7735ZM27.4405 43.3168C26.7331 43.3397 26.0496 43.4123 25.4049 43.5248C24.3035 42.5298 23.3055 40.9329 22.4728 38.8824C24.1158 38.6162 25.7762 38.4718 27.4405 38.4505V43.3168ZM30.4502 43.5248C29.777 43.408 29.0965 43.3385 28.4136 43.3168V38.4505C30.1637 38.4754 31.8362 38.6257 33.3823 38.8824C32.5495 40.9309 31.5516 42.5298 30.4502 43.5248ZM33.3763 44.4461C33.0761 44.2977 32.7679 44.1662 32.453 44.0521C32.1745 43.9506 31.8819 43.8581 31.5775 43.7745C32.6262 42.6492 33.5674 41.0404 34.3534 39.0624C35.217 39.2375 36.0328 39.4455 36.794 39.6843C37.3462 39.8574 37.8675 40.0454 38.354 40.2454C36.9064 42.0483 35.222 43.484 33.3763 44.4461ZM35.2021 45.8549C34.9534 45.5407 34.662 45.2627 34.3365 45.0291C36.1662 43.9774 37.8327 42.487 39.2644 40.6583C40.331 41.1886 41.1777 41.7916 41.7488 42.4423C39.7625 43.9217 37.5524 45.0738 35.2021 45.8549Z" fill="white"/>
</svg>
