<svg width="263.672" height="52.835" viewBox="0 0 263.672 52.835" xmlns="http://www.w3.org/2000/svg"><g id="svgGroup" stroke-linecap="round" fill-rule="evenodd" font-size="9pt" stroke="#ffffff" stroke-width="0.25mm" fill="#ffffff" style="stroke:#ffffff;stroke-width:0.25mm;fill:#ffffff"><path d="M 15.869 51.418 L 0 1.418 L 13.672 1.418 L 22.168 32.131 L 31.299 1.418 L 43.457 1.418 L 52.588 32.228 L 61.084 1.418 L 74.756 1.418 L 58.887 51.418 L 46.582 51.418 L 37.354 21.095 L 28.174 51.418 L 15.869 51.418 Z M 242.188 31.74 L 204.492 31.74 A 12.818 12.818 0 0 0 207.305 37.065 Q 210.997 41.115 218.506 41.115 L 218.604 41.115 A 17.592 17.592 0 0 0 223.08 40.579 A 11.956 11.956 0 0 0 229.785 36.134 L 240.186 42.14 A 23.946 23.946 0 0 1 222.725 52.573 A 34.554 34.554 0 0 1 218.408 52.834 A 33.183 33.183 0 0 1 209.632 51.732 A 24.562 24.562 0 0 1 198.511 45.314 A 25.387 25.387 0 0 1 191.045 27.825 A 33.477 33.477 0 0 1 191.016 26.418 A 28.298 28.298 0 0 1 192.696 16.51 A 25.245 25.245 0 0 1 198.413 7.57 A 24.827 24.827 0 0 1 214.901 0.092 A 33.41 33.41 0 0 1 217.383 0.002 A 25.902 25.902 0 0 1 226.84 1.675 A 23.501 23.501 0 0 1 235.522 7.619 A 26.142 26.142 0 0 1 242.648 25.034 A 33.946 33.946 0 0 1 242.676 26.418 A 28.945 28.945 0 0 1 242.487 29.643 A 35.932 35.932 0 0 1 242.187 31.74 Z M 155.713 51.418 L 136.719 1.418 L 150.928 1.418 L 163.037 36.427 L 175.244 1.418 L 189.404 1.418 L 170.41 51.418 L 155.713 51.418 Z M 117.725 7.326 L 117.725 1.418 L 130.615 1.418 L 130.615 51.418 L 117.725 51.418 L 117.725 45.509 A 18.932 18.932 0 0 1 104.353 52.681 A 27.399 27.399 0 0 1 101.416 52.834 A 22.423 22.423 0 0 1 84.952 45.87 A 29.187 29.187 0 0 1 84.277 45.168 A 26.385 26.385 0 0 1 77.155 27.107 A 33.976 33.976 0 0 1 77.148 26.418 A 28.496 28.496 0 0 1 78.987 16.042 A 26.025 26.025 0 0 1 84.277 7.668 A 24.466 24.466 0 0 1 91.594 2.165 A 22.389 22.389 0 0 1 101.416 0.002 A 24.072 24.072 0 0 1 108.494 0.989 A 18.445 18.445 0 0 1 117.725 7.326 Z M 93.945 16.261 A 13.381 13.381 0 0 0 90.134 24.535 A 18.143 18.143 0 0 0 90.039 26.418 A 16.075 16.075 0 0 0 90.734 31.25 A 13.024 13.024 0 0 0 93.945 36.574 A 13.143 13.143 0 0 0 103.002 40.509 A 17.455 17.455 0 0 0 103.833 40.529 A 14.834 14.834 0 0 0 108.976 39.667 A 13.101 13.101 0 0 0 113.77 36.574 A 13.346 13.346 0 0 0 117.646 28.117 A 18.062 18.062 0 0 0 117.725 26.418 A 15.891 15.891 0 0 0 117.021 21.585 A 12.995 12.995 0 0 0 113.77 16.261 A 13.346 13.346 0 0 0 104.481 12.318 A 17.604 17.604 0 0 0 103.833 12.306 A 14.814 14.814 0 0 0 98.838 13.118 A 12.874 12.874 0 0 0 93.945 16.261 Z M 204.297 21.73 L 229.785 21.73 A 15.645 15.645 0 0 0 228.617 18.282 A 10.915 10.915 0 0 0 225.22 14.137 A 12.948 12.948 0 0 0 217.383 11.623 A 16.548 16.548 0 0 0 213.472 12.062 A 12.057 12.057 0 0 0 208.813 14.284 A 12.195 12.195 0 0 0 204.922 19.671 A 16.185 16.185 0 0 0 204.297 21.73 Z M 247.078 46.987 A 8.439 8.439 0 0 0 249.146 50.221 A 10.177 10.177 0 0 0 249.224 50.299 A 8.183 8.183 0 0 0 255.151 52.736 A 8.451 8.451 0 0 0 257.923 52.288 A 8.439 8.439 0 0 0 261.157 50.221 A 10.177 10.177 0 0 0 261.235 50.143 A 8.183 8.183 0 0 0 263.672 44.216 A 8.451 8.451 0 0 0 263.224 41.444 A 8.439 8.439 0 0 0 261.157 38.21 A 10.177 10.177 0 0 0 261.078 38.132 A 8.183 8.183 0 0 0 255.151 35.695 A 8.451 8.451 0 0 0 252.379 36.143 A 8.439 8.439 0 0 0 249.146 38.21 A 10.177 10.177 0 0 0 249.068 38.288 A 8.183 8.183 0 0 0 246.631 44.216 A 8.451 8.451 0 0 0 247.078 46.987 Z" vector-effect="non-scaling-stroke"/></g></svg>