<svg width="1373" height="330" viewBox="0 0 1373 330" fill="none" xmlns="http://www.w3.org/2000/svg">
<path d="M116.44 121.648H76.664V194.864C76.664 200.965 78.1893 205.424 81.24 208.24C84.2907 211.056 88.7493 212.699 94.616 213.168C100.483 213.403 107.757 213.285 116.44 212.816V254C85.2293 257.52 63.1707 254.587 50.264 245.2C37.592 235.813 31.256 219.035 31.256 194.864V121.648H0.632V78H31.256V42.448L76.664 28.72V78H116.44V121.648ZM242.792 73.072C262.034 73.072 277.874 79.5253 290.312 92.432C302.984 105.339 309.32 123.173 309.32 145.936V254H263.912V151.568C263.912 139.835 260.743 130.917 254.407 124.816C248.072 118.48 239.624 115.312 229.063 115.312C217.33 115.312 207.943 118.949 200.903 126.224C193.863 133.499 190.343 144.411 190.343 158.96V254H144.935V7.59998H190.343V97.712C201.373 81.2853 218.856 73.072 242.792 73.072ZM367.1 56.88C359.59 56.88 353.02 54.1813 347.388 48.784C341.99 43.152 339.292 36.5813 339.292 29.072C339.292 21.5627 341.99 14.992 347.388 9.35998C353.02 3.72798 359.59 0.911985 367.1 0.911985C374.844 0.911985 381.414 3.72798 386.812 9.35998C392.444 14.992 395.26 21.5627 395.26 29.072C395.26 36.5813 392.444 43.152 386.812 48.784C381.414 54.1813 374.844 56.88 367.1 56.88ZM344.572 254V78H389.98V254H344.572ZM525.877 73.072C545.119 73.072 560.959 79.5253 573.397 92.432C586.069 105.339 592.405 123.173 592.405 145.936V254H546.997V151.568C546.997 139.835 543.829 130.917 537.493 124.816C531.157 118.48 522.709 115.312 512.149 115.312C500.415 115.312 491.029 118.949 483.989 126.224C476.949 133.499 473.429 144.411 473.429 158.96V254H428.021V78H473.429V97.712C484.458 81.2853 501.941 73.072 525.877 73.072ZM789.929 254H737.129L673.065 174.096V254H627.657V7.59998H673.065V155.44L733.609 78H787.817L717.065 164.944L789.929 254ZM995.986 73.072C1019.69 73.072 1039.87 82.1067 1056.53 100.176C1073.43 118.011 1081.87 139.952 1081.87 166C1081.87 192.048 1073.43 214.107 1056.53 232.176C1039.87 250.011 1019.69 258.928 995.986 258.928C971.346 258.928 952.338 250.363 938.962 233.232V254H893.554V7.59998H938.962V98.768C952.338 81.6373 971.346 73.072 995.986 73.072ZM952.69 201.904C961.842 211.056 973.458 215.632 987.538 215.632C1001.62 215.632 1013.23 211.056 1022.39 201.904C1031.77 192.517 1036.47 180.549 1036.47 166C1036.47 151.451 1031.77 139.6 1022.39 130.448C1013.23 121.061 1001.62 116.368 987.538 116.368C973.458 116.368 961.842 121.061 952.69 130.448C943.538 139.6 938.962 151.451 938.962 166C938.962 180.549 943.538 192.517 952.69 201.904ZM1132.91 56.88C1125.4 56.88 1118.83 54.1813 1113.19 48.784C1107.8 43.152 1105.1 36.5813 1105.1 29.072C1105.1 21.5627 1107.8 14.992 1113.19 9.35998C1118.83 3.72798 1125.4 0.911985 1132.91 0.911985C1140.65 0.911985 1147.22 3.72798 1152.62 9.35998C1158.25 14.992 1161.07 21.5627 1161.07 29.072C1161.07 36.5813 1158.25 43.152 1152.62 48.784C1147.22 54.1813 1140.65 56.88 1132.91 56.88ZM1110.38 254V78H1155.79V254H1110.38ZM1328.64 78H1372.99V245.552C1372.99 272.773 1363.96 293.541 1345.89 307.856C1328.06 322.171 1306.47 329.328 1281.12 329.328C1262.11 329.328 1245.34 325.691 1230.79 318.416C1216.47 311.141 1205.44 300.464 1197.7 286.384L1236.42 264.208C1245.34 280.635 1260.71 288.848 1282.53 288.848C1296.85 288.848 1308.11 285.093 1316.32 277.584C1324.54 270.075 1328.64 259.397 1328.64 245.552V226.544C1315.27 244.379 1296.49 253.296 1272.32 253.296C1247.45 253.296 1226.56 244.613 1209.67 227.248C1193.01 209.648 1184.67 188.293 1184.67 163.184C1184.67 138.309 1193.12 117.072 1210.02 99.472C1226.91 81.872 1247.68 73.072 1272.32 73.072C1296.49 73.072 1315.27 81.9893 1328.64 99.824V78ZM1243.81 198.032C1253.2 206.949 1265.05 211.408 1279.36 211.408C1293.68 211.408 1305.41 206.949 1314.56 198.032C1323.95 188.88 1328.64 177.264 1328.64 163.184C1328.64 149.339 1323.95 137.957 1314.56 129.04C1305.41 119.888 1293.68 115.312 1279.36 115.312C1265.05 115.312 1253.2 119.888 1243.81 129.04C1234.66 137.957 1230.08 149.339 1230.08 163.184C1230.08 177.264 1234.66 188.88 1243.81 198.032Z" fill="white"/>
</svg>
